<?xml version="1.0" encoding="utf-8"?>
<!-- Generator: Adobe Illustrator 15.0.2, SVG Export Plug-In . SVG Version: 6.00 Build 0)  -->
<!DOCTYPE svg PUBLIC "-//W3C//DTD SVG 1.1//EN" "http://www.w3.org/Graphics/SVG/1.1/DTD/svg11.dtd">
<svg version="1.1" id="Layer_1" xmlns="http://www.w3.org/2000/svg" xmlns:xlink="http://www.w3.org/1999/xlink" x="0px" y="0px"
	 width="280px" height="60px" viewBox="0 0 280 60" enable-background="new 0 0 280 60" xml:space="preserve">
<g>
	<path fill="#C03C42" d="M151.941,11.802c-1.775,0-2.922-1.167-2.922-2.974c0-1.804,1.119-2.924,2.922-2.924
		c1.912,0,2.924,1.012,2.924,2.924C154.865,10.661,153.745,11.802,151.941,11.802z"/>
	<g>
		<g>
			<g>
				<path fill="#A1A4A5" d="M85.813,18.119c1.562-0.459,4.777-0.965,6.936-0.965c7.441,0,9.14,3.261,9.14,10.334v8.91
					c0,1.608,0.46,2.158,1.332,2.158c0.369,0,0.781-0.091,1.332-0.275l0.322,3.63c-1.103,0.366-2.435,0.597-3.445,0.597
					c-1.975,0-3.122-0.645-3.628-2.941c-1.701,1.655-3.997,2.941-6.936,2.941c-4.868,0-7.118-3.445-7.118-7.625
					c0-5.741,3.49-8.451,9.415-8.451c1.378,0,2.617,0.139,4.041,0.458v-1.286c0-3.214-1.607-4.638-5.144-4.638
					c-1.928,0-4.225,0.413-5.832,0.918L85.813,18.119z M97.204,30.107c-0.964-0.276-2.021-0.506-3.213-0.506
					c-3.4,0-5.329,1.332-5.329,4.913c0,2.39,1.149,4.226,3.583,4.226c1.837,0,3.766-1.055,4.959-2.342V30.107z"/>
				<path fill="#A1A4A5" d="M125.059,20.737l-3.536,2.526c-0.782-1.378-1.424-2.022-2.526-2.022c-1.654,0-3.125,1.057-4.868,2.896
					v17.911h-4.869V17.613h4.364l0.182,2.619c1.333-1.516,3.676-3.078,6.202-3.078C122.488,17.154,123.911,18.395,125.059,20.737z"
					/>
				<path fill="#A1A4A5" d="M127.689,35.721c1.332,1.239,4.501,2.848,6.843,2.848c2.481,0,4.042-0.919,4.042-3.123
					c0-2.389-2.206-3.125-4.825-3.996l-0.411-0.138c-3.168-1.058-6.523-2.204-6.523-7.119c0-4.685,3.903-7.21,8.451-7.21
					c5.374,0,7.763,3.122,8.359,5.74l-3.767,1.424c-0.781-2.297-2.524-3.353-4.455-3.353c-2.066,0-3.766,0.873-3.766,3.032
					c0,2.434,2.342,3.215,4.961,3.996l0.458,0.137c3.078,0.919,6.43,2.39,6.43,6.982c0,4.177-3.031,7.487-8.863,7.487
					c-3.583,0-7.026-1.562-8.268-2.619L127.689,35.721z"/>
				<path fill="#A1A4A5" d="M154.353,17.613v24.434h-4.821V17.613H154.353z"/>
				<path fill="#A1A4A5" d="M167.576,21.241v13.044c0,2.296,0.045,4.227,2.389,4.227c1.102,0,2.157-0.416,3.213-0.92l0.553,3.812
					c-1.193,0.598-3.262,1.193-5.053,1.193c-4.408,0-5.969-2.617-5.969-6.52V21.241h-3.171v-3.628h3.171v-4.041l4.867-2.389v6.429
					h5.785v3.628H167.576z"/>
				<path fill="#A1A4A5" d="M196.816,18.119c-2.299,8.313-5.189,16.812-7.855,23.241c-2.663,6.385-5.098,10.932-10.701,10.932
					c-2.893,0-5.465-0.919-6.889-1.745l1.285-4.135c1.93,1.056,3.629,1.7,5.283,1.7c2.985,0,4.316-2.482,5.973-6.89l-8.59-23.103
					l5.189-0.506l6.061,18.327c1.104-3.031,3.631-11.436,5.422-18.327L196.816,18.119z"/>
			</g>
			<path fill="#A1A4A5" d="M74.354,39.73c-0.469,1.592-1.966,2.756-3.741,2.756c-1.767,0-3.258-1.152-3.734-2.732l-0.141-0.48
				L57.432,8.853h5.144L70.705,37.1l8.359-28.247h4.915l-9.484,30.442L74.354,39.73z"/>
		</g>
	</g>
</g>
</svg>
